<?xml version="1.0" encoding="UTF-8"?>
<svg width="160px" height="20px" viewBox="0 0 160 20" version="1.1" xmlns="http://www.w3.org/2000/svg" xmlns:xlink="http://www.w3.org/1999/xlink">
    <!-- Generator: Sketch 41.2 (35397) - http://www.bohemiancoding.com/sketch -->
    <title>konstru-color</title>
    <desc>Created with Sketch.</desc>
    <defs></defs>
    <g id="Page-1" stroke="none" stroke-width="1" fill="none" fill-rule="evenodd">
        <g id="iPad-Landscape" transform="translate(-432.000000, -280.000000)">
            <g id="konstru-color" transform="translate(432.000000, 280.000000)">
                <g id="Layer_1">
                    <g id="Group">
                        <polygon id="Shape" fill="#233F49" points="34.0436137 0.747663551 27.9127726 8.22429907 27.9127726 0.747663551 23.7757009 0.747663551 23.7757009 18.6417445 27.9127726 18.6417445 27.9127726 10.7165109 34.3426791 18.6417445 39.6760125 18.6417445 31.8504673 9.2211838 39.1277259 0.747663551"></polygon>
                        <path d="M48.1993769,5.68224299 C47.4018692,6.42990654 46.6043614,7.77570093 46.6043614,9.71962617 C46.6043614,11.364486 47.152648,12.6604361 48.2492212,13.7570093 C49.3956386,14.8535826 50.6915888,15.2523364 52.0872274,15.2523364 C53.9314642,15.2523364 55.2274143,14.6043614 56.0747664,13.7071651 C56.7725857,13.05919 57.6199377,11.7632399 57.6199377,9.71962617 C57.6199377,7.87538941 56.8722741,6.47975078 56.0747664,5.68224299 C55.1775701,4.83489097 53.7819315,4.13707165 52.1370717,4.13707165 C50.5420561,4.13707165 49.1464174,4.73520249 48.1993769,5.68224299 M59.0654206,2.94080997 C60.7601246,4.58566978 61.8566978,6.92834891 61.8566978,9.71962617 C61.8566978,12.1121495 61.0093458,14.5545171 59.0654206,16.4485981 C57.4205607,18.0436137 55.1277259,19.0903427 52.1370717,19.0903427 C48.7975078,19.0903427 46.5046729,17.7445483 45.1588785,16.4485981 C43.4143302,14.8535826 42.3676012,12.411215 42.3676012,9.7694704 C42.3676012,7.17757009 43.5140187,4.58566978 45.1588785,2.99065421 C46.3551402,1.79439252 48.5981308,0.348909657 52.1869159,0.348909657 C54.9283489,0.348909657 57.271028,1.19626168 59.0654206,2.94080997" id="Shape" fill="#233F49"></path>
                        <polygon id="Shape" fill="#233F49" points="80.9968847 0.747663551 80.9968847 12.3115265 71.2274143 0.747663551 67.6386293 0.747663551 67.6386293 18.6417445 71.7757009 18.6417445 71.7757009 7.07788162 81.4953271 18.6417445 85.1339564 18.6417445 85.1339564 0.747663551"></polygon>
                        <path d="M101.333333,5.13395639 C99.9875389,3.9376947 98.8411215,3.83800623 98.3426791,3.83800623 C97.7943925,3.83800623 97.0965732,3.9376947 96.5981308,4.43613707 C96.3489097,4.68535826 96.1495327,5.08411215 96.1495327,5.58255452 C96.1495327,6.03115265 96.2990654,6.33021807 96.5482866,6.57943925 C96.9968847,6.97819315 97.5950156,7.12772586 98.7912773,7.57632399 L100.137072,8.07476636 C100.934579,8.37383178 101.88162,8.77258567 102.579439,9.47040498 C103.626168,10.4672897 103.875389,11.7632399 103.875389,12.8099688 C103.875389,14.6542056 103.227414,16.2990654 102.280374,17.2461059 C100.685358,18.8909657 98.3925234,19.0903427 97.1962617,19.0903427 C95.9003115,19.0903427 94.7538941,18.8909657 93.6573209,18.3426791 C92.7601246,17.894081 91.7133956,17.046729 91.0155763,16.3987539 L93.1588785,13.4579439 C93.6074766,13.9065421 94.3551402,14.5545171 94.8037383,14.8535826 C95.5015576,15.3021807 96.2492212,15.5015576 97.046729,15.5015576 C97.5950156,15.5015576 98.3426791,15.4018692 98.94081,14.9034268 C99.2897196,14.6043614 99.588785,14.105919 99.588785,13.4579439 C99.588785,12.8598131 99.3395639,12.5109034 98.9906542,12.1619938 C98.4922118,11.7632399 97.3956386,11.364486 96.8971963,11.165109 L95.4018692,10.6666667 C94.5545171,10.3676012 93.6074766,10.0186916 92.9096573,9.2211838 C91.9626168,8.22429907 91.8130841,6.97819315 91.8130841,6.08099688 C91.8130841,4.48598131 92.3115265,3.14018692 93.3582555,2.04361371 C94.6043614,0.747663551 96.1495327,0.398753894 97.7943925,0.398753894 C99.0404984,0.398753894 101.034268,0.598130841 103.127726,2.19314642 L101.333333,5.13395639 Z" id="Shape" fill="#233F49"></path>
                        <polygon id="Shape" fill="#233F49" points="108.71028 0.747663551 108.71028 4.23676012 112.598131 4.23676012 112.598131 18.6417445 116.735202 18.6417445 116.735202 4.23676012 120.672897 4.23676012 120.672897 0.747663551"></polygon>
                        <g transform="translate(126.105919, 0.498442)" id="Shape" fill="#233F49">
                            <path d="M4.43613707,8.37383178 L5.38317757,8.37383178 C6.13084112,8.37383178 7.17757009,8.2741433 7.87538941,7.57632399 C8.17445483,7.27725857 8.52336449,6.72897196 8.52336449,5.8317757 C8.52336449,4.83489097 8.02492212,4.28660436 7.67601246,3.98753894 C7.02803738,3.48909657 5.93146417,3.43925234 5.38317757,3.43925234 L4.43613707,3.43925234 L4.43613707,8.37383178 Z M6.62928349,0.249221184 C8.92211838,0.249221184 10.317757,0.996884735 11.2149533,1.79439252 C11.9626168,2.54205607 12.7601246,3.78816199 12.7601246,5.78193146 C12.7601246,6.92834891 12.5109034,8.32398754 11.364486,9.42056075 C10.7663551,10.0186916 9.86915888,10.5669782 8.87227414,10.8161994 L14.4049844,18.1433022 L9.37071651,18.1433022 L4.53582555,11.0654206 L4.53582555,18.1433022 L0.398753894,18.1433022 L0.398753894,0.199376947 L6.62928349,0.199376947 L6.62928349,0.249221184 Z"></path>
                            <path d="M33.7445483,10.8660436 C33.7445483,12.6105919 33.5451713,14.7040498 31.7507788,16.5482866 C30.0062305,18.3426791 28.0623053,18.5919003 26.1682243,18.5919003 C24.2741433,18.5919003 22.2803738,18.3426791 20.5856698,16.5482866 C18.7912773,14.7040498 18.5919003,12.6105919 18.5919003,10.8660436 L18.5919003,0.249221184 L22.728972,0.249221184 L22.728972,10.7663551 C22.728972,11.5638629 22.7788162,12.8598131 23.6760125,13.7570093 C24.423676,14.5545171 25.4205607,14.7040498 26.1682243,14.7040498 C26.9158879,14.7040498 27.9626168,14.5545171 28.6604361,13.7570093 C29.5576324,12.8598131 29.6074766,11.5140187 29.6074766,10.7663551 L29.6074766,0.249221184 L33.7445483,0.249221184 L33.7445483,10.8660436 Z"></path>
                        </g>
                        <polygon id="Shape" fill="#4DC1B9" points="0 18.6915888 17.9937695 18.6417445 9.07165109 9.71962617"></polygon>
                        <polygon id="Shape" fill="#E87431" points="0 0.747663551 9.07165109 9.71962617 17.9937695 0.747663551"></polygon>
                        <polygon id="Shape" fill="#DF5A26" points="0 18.6915888 9.07165109 9.71962617 0 0.747663551"></polygon>
                        <polygon id="Shape" fill="#32A99E" points="0 18.6915888 10.8161994 11.4641745 9.07165109 9.71962617"></polygon>
                    </g>
                </g>
            </g>
        </g>
    </g>
</svg>