<?xml version="1.0" encoding="UTF-8"?>
<svg width="116px" height="14px" viewBox="0 0 116 14" version="1.1" xmlns="http://www.w3.org/2000/svg" xmlns:xlink="http://www.w3.org/1999/xlink">
    <!-- Generator: Sketch 41.2 (35397) - http://www.bohemiancoding.com/sketch -->
    <title>konstru</title>
    <desc>Created with Sketch.</desc>
    <defs></defs>
    <g id="Page-1" stroke="none" stroke-width="1" fill="none" fill-rule="evenodd">
        <g id="Model-changes" transform="translate(-30.000000, -16.000000)">
            <g id="konstru" transform="translate(30.000000, 16.000000)">
                <g id="Layer_1">
                    <g id="Group">
                        <g transform="translate(16.871795, 0.000000)" id="Shape" fill="#FFFFFF">
                            <polygon points="3.23076923 5.92307692 7.64615385 0.538461538 11.2717949 0.538461538 6.03076923 6.64102564 11.6666667 13.425641 7.82564103 13.425641 3.23076923 7.71794872 3.23076923 13.4615385 0.251282051 13.4615385 0.251282051 0.538461538 3.23076923 0.538461538"></polygon>
                            <path d="M25.6666667,2.11794872 C26.8871795,3.3025641 27.6769231,4.98974359 27.6769231,7 C27.6769231,8.72307692 27.0666667,10.4820513 25.6666667,11.8461538 C24.4820513,12.9948718 22.8307692,13.7487179 20.6769231,13.7487179 C18.2717949,13.7487179 16.6205128,12.7794872 15.6512821,11.8461538 C14.3948718,10.6974359 13.6410256,8.93846154 13.6410256,7.03589744 C13.6410256,5.16923077 14.4666667,3.3025641 15.6512821,2.15384615 C16.5128205,1.29230769 18.1282051,0.251282051 20.7128205,0.251282051 C22.6871795,0.251282051 24.374359,0.861538462 25.6666667,2.11794872 Z M17.8410256,4.09230769 C17.2666667,4.63076923 16.6923077,5.6 16.6923077,7 C16.6923077,8.18461538 17.0871795,9.11794872 17.8769231,9.90769231 C18.7025641,10.6974359 19.6358974,10.9846154 20.6410256,10.9846154 C21.9692308,10.9846154 22.9025641,10.5179487 23.5128205,9.87179487 C24.0153846,9.40512821 24.625641,8.47179487 24.625641,7 C24.625641,5.67179487 24.0871795,4.66666667 23.5128205,4.09230769 C22.8666667,3.48205128 21.8615385,2.97948718 20.6769231,2.97948718 C19.5282051,2.97948718 18.5230769,3.41025641 17.8410256,4.09230769 Z"></path>
                            <polygon points="31.8410256 13.4615385 31.8410256 0.538461538 34.425641 0.538461538 41.425641 8.86666667 41.425641 0.538461538 44.4051282 0.538461538 44.4051282 13.4615385 41.8205128 13.4615385 34.8205128 5.0974359 34.8205128 13.4615385"></polygon>
                            <path d="M56.1076923,3.6974359 C55.1384615,2.83589744 54.3128205,2.76410256 53.9538462,2.76410256 C53.5589744,2.76410256 53.0564103,2.83589744 52.6974359,3.19487179 C52.5179487,3.37435897 52.374359,3.66153846 52.374359,4.02051282 C52.374359,4.34358974 52.4820513,4.55897436 52.6615385,4.73846154 C52.9846154,5.02564103 53.4153846,5.13333333 54.2769231,5.45641026 L55.2461538,5.81538462 C55.8205128,6.03076923 56.5025641,6.31794872 57.0051282,6.82051282 C57.7589744,7.53846154 57.9384615,8.47179487 57.9384615,9.22564103 C57.9384615,10.5538462 57.4717949,11.7384615 56.7897436,12.4205128 C55.6410256,13.6051282 53.9897436,13.7487179 53.1282051,13.7487179 C52.1948718,13.7487179 51.3692308,13.6051282 50.5794872,13.2102564 C49.9333333,12.8871795 49.1794872,12.2769231 48.6769231,11.8102564 L50.2205128,9.69230769 C50.5435897,10.0153846 51.0820513,10.4820513 51.4051282,10.6974359 C51.9076923,11.0205128 52.4461538,11.1641026 53.0205128,11.1641026 C53.4153846,11.1641026 53.9538462,11.0923077 54.3846154,10.7333333 C54.6358974,10.5179487 54.8512821,10.1589744 54.8512821,9.69230769 C54.8512821,9.26153846 54.6717949,9.01025641 54.4205128,8.75897436 C54.0615385,8.47179487 53.2717949,8.18461538 52.9128205,8.04102564 L51.8358974,7.68205128 C51.225641,7.46666667 50.5435897,7.21538462 50.0410256,6.64102564 C49.3589744,5.92307692 49.2512821,5.02564103 49.2512821,4.37948718 C49.2512821,3.23076923 49.6102564,2.26153846 50.3641026,1.47179487 C51.2615385,0.538461538 52.374359,0.287179487 53.5589744,0.287179487 C54.4564103,0.287179487 55.8923077,0.430769231 57.4,1.57948718 L56.1076923,3.6974359 Z"></path>
                            <polygon points="67.2 3.05128205 67.2 13.4615385 64.2205128 13.4615385 64.2205128 3.05128205 61.4205128 3.05128205 61.4205128 0.538461538 70 0.538461538 70 3.05128205"></polygon>
                            <path d="M78.7230769,0.538461538 C80.374359,0.538461538 81.3794872,1.07692308 82.025641,1.65128205 C82.5641026,2.18974359 83.1384615,3.08717949 83.1384615,4.52307692 C83.1384615,5.34871795 82.9589744,6.35384615 82.1333333,7.14358974 C81.7025641,7.57435897 81.0564103,7.96923077 80.3384615,8.14871795 L84.3230769,13.425641 L80.6974359,13.425641 L77.2153846,8.32820513 L77.2153846,13.425641 L74.2358974,13.425641 L74.2358974,0.502564103 L78.7230769,0.502564103 L78.7230769,0.538461538 Z M77.1435897,6.38974359 L77.825641,6.38974359 C78.3641026,6.38974359 79.1179487,6.31794872 79.6205128,5.81538462 C79.8358974,5.6 80.0871795,5.20512821 80.0871795,4.55897436 C80.0871795,3.84102564 79.7282051,3.44615385 79.4769231,3.23076923 C79.0102564,2.87179487 78.2205128,2.83589744 77.825641,2.83589744 L77.1435897,2.83589744 L77.1435897,6.38974359 Z"></path>
                            <path d="M98.2512821,8.18461538 C98.2512821,9.44102564 98.1076923,10.9487179 96.8153846,12.2769231 C95.5589744,13.5692308 94.1589744,13.7487179 92.7948718,13.7487179 C91.4307692,13.7487179 89.9948718,13.5692308 88.774359,12.2769231 C87.4820513,10.9487179 87.3384615,9.44102564 87.3384615,8.18461538 L87.3384615,0.538461538 L90.3179487,0.538461538 L90.3179487,8.11282051 C90.3179487,8.68717949 90.3538462,9.62051282 91,10.2666667 C91.5384615,10.8410256 92.2564103,10.9487179 92.7948718,10.9487179 C93.3692308,10.9487179 94.0871795,10.8410256 94.5897436,10.2666667 C95.2358974,9.62051282 95.2717949,8.65128205 95.2717949,8.11282051 L95.2717949,0.538461538 L98.2512821,0.538461538 L98.2512821,8.18461538 Z"></path>
                        </g>
                        <g transform="translate(0.000000, 0.358974)" id="Shape">
                            <polygon fill="#C2C1C0" points="0 13.1025641 12.9230769 13.1025641 6.46153846 6.64102564"></polygon>
                            <path d="M12.9230769,13.1025641 L6.46153846,6.64102564" fill="#000000"></path>
                            <polygon fill="#ABABAB" points="7.71794872 7.8974359 0 13.1025641 5.6 5.77948718"></polygon>
                            <polygon fill="#FFFFFF" points="12.9230769 0.179487179 0 0.179487179 6.46153846 6.64102564"></polygon>
                            <polygon fill="#E2E2E2" points="0 13.1025641 0 0.179487179 6.46153846 6.64102564"></polygon>
                        </g>
                    </g>
                </g>
            </g>
        </g>
    </g>
</svg>