<svg width="124" height="15" viewBox="0 0 124 15" xmlns="http://www.w3.org/2000/svg"><title>konstru-logo-white</title><desc>Created with Sketch.</desc><g fill="none"><path d="M26.269.577l-4.731 5.769v-5.769h-3.192v13.808h3.192v-6.115l4.962 6.115h4.115l-6.038-7.269 5.615-6.538h-3.923zm10.923 3.808c-.615.577-1.231 1.615-1.231 3.115 0 1.269.423 2.269 1.269 3.115.885.846 1.885 1.154 2.962 1.154 1.423 0 2.423-.5 3.077-1.192.538-.5 1.192-1.5 1.192-3.077 0-1.423-.577-2.5-1.192-3.115-.692-.654-1.769-1.192-3.038-1.192-1.231 0-2.308.462-3.038 1.192zm8.385-2.115c1.308 1.269 2.154 3.077 2.154 5.231 0 1.846-.654 3.731-2.154 5.192-1.269 1.231-3.038 2.038-5.346 2.038-2.577 0-4.346-1.038-5.385-2.038-1.346-1.231-2.154-3.115-2.154-5.154 0-2 .885-4 2.154-5.231.923-.923 2.654-2.038 5.423-2.038 2.115 0 3.923.654 5.308 2zM62.5.577v8.923l-7.538-8.923h-2.769v13.808h3.192v-8.923l7.5 8.923h2.808v-13.808h-3.192zm15.692 3.385c-1.038-.923-1.923-1-2.308-1-.423 0-.962.077-1.346.462-.192.192-.346.5-.346.885 0 .346.115.577.308.769.346.308.808.423 1.731.769l1.038.385c.615.231 1.346.538 1.885 1.077.808.769 1 1.769 1 2.577 0 1.423-.5 2.692-1.231 3.423-1.231 1.269-3 1.423-3.923 1.423-1 0-1.885-.154-2.731-.577-.692-.346-1.5-1-2.038-1.5l1.654-2.269c.346.346.923.846 1.269 1.077.538.346 1.115.5 1.731.5.423 0 1-.077 1.462-.462.269-.231.5-.615.5-1.115 0-.462-.192-.731-.462-1-.385-.308-1.231-.615-1.615-.769l-1.154-.385c-.654-.231-1.385-.5-1.923-1.115-.731-.769-.846-1.731-.846-2.423 0-1.231.385-2.269 1.192-3.115.962-1 2.154-1.269 3.423-1.269.962 0 2.5.154 4.115 1.385l-1.385 2.269zm5.692-3.385v2.692h3v11.115h3.192v-11.115h3.038v-2.692h-9.231zm16.846 6.269h.731c.577 0 1.385-.077 1.923-.615.231-.231.5-.654.5-1.346 0-.769-.385-1.192-.654-1.423-.5-.385-1.346-.423-1.769-.423h-.731v3.808zm1.692-6.269c1.769 0 2.846.577 3.538 1.192.577.577 1.192 1.538 1.192 3.077 0 .885-.192 1.962-1.077 2.808-.462.462-1.154.885-1.923 1.077l4.269 5.654h-3.885l-3.731-5.462v5.462h-3.192v-13.846h4.808v.038zm20.923 8.192c0 1.346-.154 2.962-1.538 4.385-1.346 1.385-2.846 1.577-4.308 1.577-1.462 0-3-.192-4.308-1.577-1.385-1.423-1.538-3.038-1.538-4.385v-8.192h3.192v8.115c0 .615.038 1.615.731 2.308.577.615 1.346.731 1.923.731s1.385-.115 1.923-.731c.692-.692.731-1.731.731-2.308v-8.115h3.192v8.192z" id="Shape" fill="#fff"/><path id="Shape" fill="#C2C1C0" d="M0 14.423l13.885-.038-7.654-7.654z"/><path d="M0 .577l7 6.923 6.885-6.923h-13.885zm0 13.846l7-6.923-7-6.923v13.846z" id="Shape" fill="#fff"/><path id="Shape" fill="#E2E2E2" d="M0 14.423l7-6.923-7-6.923z"/><path fill="#ABABAB" d="M0 14.423l8.346-5.577-1.346-1.346z"/></g></svg>