<?xml version="1.0" encoding="UTF-8"?>
<svg width="321px" height="39px" viewBox="0 0 321 39" version="1.1" xmlns="http://www.w3.org/2000/svg" xmlns:xlink="http://www.w3.org/1999/xlink">
    <!-- Generator: Sketch 41.2 (35397) - http://www.bohemiancoding.com/sketch -->
    <title>konstru-logo-white</title>
    <desc>Created with Sketch.</desc>
    <defs></defs>
    <g id="Page-1" stroke="none" stroke-width="1" fill="none" fill-rule="evenodd">
        <g id="konstru-logo-white">
            <g id="Group">
                <path d="M68.3,1.5 L56,16.5 L56,1.5 L47.7,1.5 L47.7,37.4 L56,37.4 L56,21.5 L68.9,37.4 L79.6,37.4 L63.9,18.5 L78.5,1.5 L68.3,1.5 Z M96.7,11.4 C95.1,12.9 93.5,15.6 93.5,19.5 C93.5,22.8 94.6,25.4 96.8,27.6 C99.1,29.8 101.7,30.6 104.5,30.6 C108.2,30.6 110.8,29.3 112.5,27.5 C113.9,26.2 115.6,23.6 115.6,19.5 C115.6,15.8 114.1,13 112.5,11.4 C110.7,9.7 107.9,8.3 104.6,8.3 C101.4,8.3 98.6,9.5 96.7,11.4 L96.7,11.4 Z M118.5,5.9 C121.9,9.2 124.1,13.9 124.1,19.5 C124.1,24.3 122.4,29.2 118.5,33 C115.2,36.2 110.6,38.3 104.6,38.3 C97.9,38.3 93.3,35.6 90.6,33 C87.1,29.8 85,24.9 85,19.6 C85,14.4 87.3,9.2 90.6,6 C93,3.6 97.5,0.7 104.7,0.7 C110.2,0.7 114.9,2.4 118.5,5.9 L118.5,5.9 Z" id="Shape" fill="#FFFFFF"></path>
                <path d="M162.5,1.5 L162.5,24.7 L142.9,1.5 L135.7,1.5 L135.7,37.4 L144,37.4 L144,14.2 L163.5,37.4 L170.8,37.4 L170.8,1.5 L162.5,1.5 Z M203.3,10.3 C200.6,7.9 198.3,7.7 197.3,7.7 C196.2,7.7 194.8,7.9 193.8,8.9 C193.3,9.4 192.9,10.2 192.9,11.2 C192.9,12.1 193.2,12.7 193.7,13.2 C194.6,14 195.8,14.3 198.2,15.2 L200.9,16.2 C202.5,16.8 204.4,17.6 205.8,19 C207.9,21 208.4,23.6 208.4,25.7 C208.4,29.4 207.1,32.7 205.2,34.6 C202,37.9 197.4,38.3 195,38.3 C192.4,38.3 190.1,37.9 187.9,36.8 C186.1,35.9 184,34.2 182.6,32.9 L186.9,27 C187.8,27.9 189.3,29.2 190.2,29.8 C191.6,30.7 193.1,31.1 194.7,31.1 C195.8,31.1 197.3,30.9 198.5,29.9 C199.2,29.3 199.8,28.3 199.8,27 C199.8,25.8 199.3,25.1 198.6,24.4 C197.6,23.6 195.4,22.8 194.4,22.4 L191.4,21.4 C189.7,20.8 187.8,20.1 186.4,18.5 C184.5,16.5 184.2,14 184.2,12.2 C184.2,9 185.2,6.3 187.3,4.1 C189.8,1.5 192.9,0.8 196.2,0.8 C198.7,0.8 202.7,1.2 206.9,4.4 L203.3,10.3 L203.3,10.3 Z M218.1,1.5 L218.1,8.5 L225.9,8.5 L225.9,37.4 L234.2,37.4 L234.2,8.5 L242.1,8.5 L242.1,1.5 L218.1,1.5 Z M261.9,17.8 L263.8,17.8 C265.3,17.8 267.4,17.6 268.8,16.2 C269.4,15.6 270.1,14.5 270.1,12.7 C270.1,10.7 269.1,9.6 268.4,9 C267.1,8 264.9,7.9 263.8,7.9 L261.9,7.9 L261.9,17.8 Z M266.3,1.5 C270.9,1.5 273.7,3 275.5,4.6 C277,6.1 278.6,8.6 278.6,12.6 C278.6,14.9 278.1,17.7 275.8,19.9 C274.6,21.1 272.8,22.2 270.8,22.7 L281.9,37.4 L271.8,37.4 L262.1,23.2 L262.1,37.4 L253.8,37.4 L253.8,1.4 L266.3,1.4 L266.3,1.5 L266.3,1.5 Z M320.7,22.8 C320.7,26.3 320.3,30.5 316.7,34.2 C313.2,37.8 309.3,38.3 305.5,38.3 C301.7,38.3 297.7,37.8 294.3,34.2 C290.7,30.5 290.3,26.3 290.3,22.8 L290.3,1.5 L298.6,1.5 L298.6,22.6 C298.6,24.2 298.7,26.8 300.5,28.6 C302,30.2 304,30.5 305.5,30.5 C307,30.5 309.1,30.2 310.5,28.6 C312.3,26.8 312.4,24.1 312.4,22.6 L312.4,1.5 L320.7,1.5 L320.7,22.8 L320.7,22.8 Z" id="Shape" fill="#FFFFFF"></path>
                <polygon id="Shape" fill="#C2C1C0" points="0 37.5 36.1 37.4 16.2 17.5"></polygon>
                <path d="M0,1.5 L18.2,19.5 L36.1,1.5 L-7.10542736e-15,1.5 L0,1.5 Z M0,37.5 L18.2,19.5 L0,1.5 L0,37.5 Z" id="Shape" fill="#FFFFFF"></path>
                <polygon id="Shape" fill="#E2E2E2" points="0 37.5 18.2 19.5 0 1.5"></polygon>
                <polygon id="Shape" fill="#ABABAB" points="0 37.5 21.7 23 18.2 19.5"></polygon>
            </g>
        </g>
    </g>
</svg>